<svg width="72" height="72" viewBox="0 0 72 72" fill="none" xmlns="http://www.w3.org/2000/svg">
<g clip-path="url(#clip0_383_1521)">
<rect x="0.00146484" width="71.9971" height="71.9971" rx="15.4279" fill="#FF5001"/>
<path d="M61.2964 19.6413H48.6703L36.0443 28.3489L23.4183 19.6413H10.7923L-4.01064 82.4593H69.0015L61.2964 19.6413Z" fill="black"/>
<path d="M28.5516 32.6378C26.3209 27.5553 19.0887 27.5908 16.779 32.6378L16.8646 32.7539C19.7812 36.7095 25.7142 36.6505 28.5516 32.6378Z" fill="white"/>
<path d="M54.663 32.6378C52.4323 27.5553 45.2001 27.5908 42.8903 32.6378L42.976 32.7539C45.8926 36.7095 51.8256 36.6505 54.663 32.6378Z" fill="white"/>
<circle cx="2.61228" cy="2.61228" r="2.61228" transform="matrix(-1 0 0 1 51.7339 31.2998)" fill="black"/>
<circle cx="2.61228" cy="2.61228" r="2.61228" transform="matrix(-1 0 0 1 25.6558 31.2998)" fill="black"/>
</g>
<defs>
<clipPath id="clip0_383_1521">
<rect x="0.00146484" width="71.9971" height="71.9971" rx="15.4279" fill="white"/>
</clipPath>
</defs>
</svg>
